<svg xmlns="http://www.w3.org/2000/svg" viewBox="0 0 469.83 508.07"><defs><style>.cls-1{fill:#f2f2f2;}.cls-2{fill:#ffb8b8;}.cls-3{fill:#2f2e41;}.cls-4{fill:#606060;}.cls-5{fill:#e6e6e6;}.cls-6{fill:#fff;}.cls-7{fill:#231f20;}.cls-8{fill:#415a53;}.cls-10,.cls-11,.cls-9{fill:none;stroke-miterlimit:10;}.cls-9{stroke:#000;stroke-width:0.25px;}.cls-10{stroke:#606060;}.cls-11{stroke:#e6e6e6;}</style></defs><g id="Layer_2" data-name="Layer 2"><path class="cls-1" d="M235.36,592.1s-1.66,9.33-8.67,9.29c0,0-29.55,6.07-74.4-39.54l17.89-2.58-23.76-5.08S116.86,503,118,492l17.24,4.22,2,7.84.87-7,24.34,8.73,4.48,17.66,1-15.2,7.78,3.88s1.73-43.4,8.16-60.06l12,11.87-2.11,9.57,4.73-6.73,16.31,20.05-5,16.56,8.49-11.59,1.06,1.6,2.22,2.66Z" transform="translate(-117.93 -95.29)"/><polygon class="cls-2" points="434.91 500.3 426.54 500.3 422.56 468.01 434.91 468.01 434.91 500.3"/><polygon class="cls-2" points="467.67 498.12 459.13 498.75 452 467.01 464.3 465.8 467.67 498.12"/><path class="cls-3" d="M521.59,474.15l-.27.38a2.12,2.12,0,0,0-.4,1.18l-.17,5.18a2.28,2.28,0,0,0,0,.45l13,73,5.76,32a1.72,1.72,0,0,1,0,.39h0a2.15,2.15,0,0,0,2.32,2.14l10.73-.85a2.16,2.16,0,0,0,2-2.17l-.46-55.8H555l16.72,55.33,0,.16.17.78a2.14,2.14,0,0,0,2.51,1.65l11.45-2.22a2.15,2.15,0,0,0,1.71-2.44l-15.75-101.1a2.1,2.1,0,0,1,0-.5l.14-1.88a2.57,2.57,0,0,0,0-.48l-.82-5.36a2.14,2.14,0,0,0-2.14-1.82l-45.1.26a2.16,2.16,0,0,0-1.74.91Z" transform="translate(-117.93 -95.29)"/><path class="cls-4" d="M538.81,352.65s-1.11-7.76-.28-9.32-.2-2.59,5.68-6.34c0,0,8.48-3.63,11.76-4a14.26,14.26,0,0,1,6.23,1.48,20,20,0,0,1,6.32,7,8.38,8.38,0,0,1,2.11,1.95,14.21,14.21,0,0,1,1.9,5.55,25,25,0,0,1-.62,9.56,35.87,35.87,0,0,1-1.8,5.43c-.74,1.3-14.54.53-14.54.53L541,356.33,538.84,355Z" transform="translate(-117.93 -95.29)"/><path class="cls-5" d="M432.33,600.73h-1L256.69,600l-1.13-.27c-26.22-6.29-33.75-28.33-34.06-39.1v-.31L222.13,131l.17-.9c4.77-25.58,24.23-33.31,33.85-33.82l28-1H430.85a35.06,35.06,0,0,1,9.75,2l.47.16.46.19c14.59,6.34,21.67,15.29,25,21.69a32.35,32.35,0,0,1,4,14.34V562l-.08.61c-3.47,28.12-22.73,38.09-38.18,38.09Z" transform="translate(-117.93 -95.29)"/><path class="cls-6" d="M460.59,133.68v426a24.69,24.69,0,0,1-.34,4.11c-4.77,28.6-28.63,27-28.63,27l-170.27-.67a23.63,23.63,0,0,1-7.82-1.3c-21.43-7.61-22-28.38-22-28.38l.63-425.74a24.6,24.6,0,0,1,.88-6.5c5.81-20.93,23.68-21.88,23.68-21.88l21.73-.75,5.93-.21H430.79a22.49,22.49,0,0,1,4.73.95,25.45,25.45,0,0,1,4,1.52C460.55,117.81,460.59,133.56,460.59,133.68Z" transform="translate(-117.93 -95.29)"/><path class="cls-5" d="M420.18,114.36a11.91,11.91,0,0,0-3.77-8.72c-.13-.12-1.29-2-1.43-2.09H289.67l-6,2a11.85,11.85,0,0,0-3.94,8.85c0,.36,0,.71.05,1.06a12.61,12.61,0,0,0,.66,3,10.54,10.54,0,0,0,10.17,7.92h119.1a10.53,10.53,0,0,0,10.5-10.5c0-.25,0-.48,0-.72S420.18,114.6,420.18,114.36Z" transform="translate(-117.93 -95.29)"/><path class="cls-2" d="M572,357.12a16.88,16.88,0,1,1-32.71-5.88,16.57,16.57,0,0,1,.71-1.62,16.88,16.88,0,0,1,32,7.5Z" transform="translate(-117.93 -95.29)"/><path class="cls-7" d="M572,356.48a19.81,19.81,0,0,1-.19,3.19c-.1.16-.29.3-.34.43s-.23.77-.68.89a1.1,1.1,0,0,1-.45,0,2.1,2.1,0,0,1-.8-.44c-.39-.25-.86-.13-1.45,0a6,6,0,0,0-2.78,1.76l-1.68-15.11c-.64.07-1.56.16-2.68.24a62.4,62.4,0,0,1-8.29.15,27.1,27.1,0,0,1-3.81-.34,19,19,0,0,0-3.93-.7,5.7,5.7,0,0,0-2.37.32,4.48,4.48,0,0,0-1.91,1.78c-.15.18-.25.26-.39.44a16.27,16.27,0,0,1,14.89-9.43A16.85,16.85,0,0,1,572,356.48Z" transform="translate(-117.93 -95.29)"/><path class="cls-8" d="M535.13,415l1-14.53c2.71-19.11,8.44-20.74,8.44-20.74s10.08-2.74,19.92-.22a26.49,26.49,0,0,1,14.48,9.2l-1.76,20.76-4.23,50.84-1.24,17.14-.67-1.82c-.66-1.83-5.1-2.27-8.13-2.74s-8.29,1.93-10.3,3-12.85,7.78-22,5.05-9-6.71-9-6.71l11.73-44.59Z" transform="translate(-117.93 -95.29)"/><path class="cls-2" d="M535.13,415l-.68,10.31-1.13,4.29-26.07,6.89a7,7,0,1,1-6.68-9,6.5,6.5,0,0,1,3.87,1.05l30.63-13.07Z" transform="translate(-117.93 -95.29)"/><path class="cls-2" d="M584.91,417.27V433.1l-40.14,13.28a7.18,7.18,0,1,1-3.46-7.88l30.76-15.64v-4" transform="translate(-117.93 -95.29)"/><path class="cls-8" d="M568,389.33s-5.46,2.21-5.11,12.61,5.49,20.91,5.49,20.91,7.13-4.26,10.52-4.43a20,20,0,0,1,8.63,1.3s-1.59-29.09-8.63-31.05S568,389.33,568,389.33Z" transform="translate(-117.93 -95.29)"/><path class="cls-4" d="M537.39,593.2l-2.14.48c-4,1.36-6.92,5.44-6.92,8.87a5.42,5.42,0,0,0,.06.81h26.25V593.2Z" transform="translate(-117.93 -95.29)"/><path class="cls-4" d="M569.57,592.46l-2.08.73c-3.82,1.81-6.35,6-6,9.37a6.5,6.5,0,0,0,.15.79l19.16-2.19,1.28-.14,5.64-.65-.81-9.7Z" transform="translate(-117.93 -95.29)"/><path class="cls-4" d="M329.35,272.31a16.62,16.62,0,0,1,4.28-11.16v22.31A16.59,16.59,0,0,1,329.35,272.31Z" transform="translate(-117.93 -95.29)"/><line class="cls-9" x1="246.82" y1="160.45" x2="246.81" y2="160.45"/><line class="cls-10" x1="149.25" y1="304.73" x2="298.46" y2="304.73"/><line class="cls-10" x1="148.14" y1="351.43" x2="297.35" y2="351.43"/><circle class="cls-8" cx="153.96" cy="290.29" r="4.38"/><circle class="cls-8" cx="169.33" cy="290.29" r="4.38"/><circle class="cls-8" cx="184.7" cy="290.29" r="4.38"/><circle class="cls-8" cx="184.7" cy="337.41" r="4.38"/><circle class="cls-8" cx="169.33" cy="337.41" r="4.38"/><circle class="cls-8" cx="153.96" cy="337.41" r="4.38"/><rect class="cls-8" x="245.5" y="381.83" width="53.3" height="22.67" rx="2.29"/><rect class="cls-11" x="176.07" y="126.27" width="104.16" height="102.88" rx="3.58"/><path class="cls-5" d="M325.39,272.3a16.64,16.64,0,0,0,8.24,14.38v.07a16.46,16.46,0,0,1-8.35,2.25,16.7,16.7,0,0,1,0-33.39,16.46,16.46,0,0,1,8.35,2.25v.07A16.61,16.61,0,0,0,325.39,272.3Z" transform="translate(-117.93 -95.29)"/><path class="cls-5" d="M354.39,286.75a16.65,16.65,0,0,1-20.65-3.17l-.11-.12a16.68,16.68,0,0,1,0-22.31l.11-.12a16.65,16.65,0,0,1,20.65-3.17,16.67,16.67,0,0,0,0,28.89Z" transform="translate(-117.93 -95.29)"/><circle class="cls-8" cx="248.95" cy="177.01" r="16.71"/><polyline class="cls-5" points="352.65 119.31 354.88 119.31 354.88 173.79 352.65 173.79"/></g></svg>